<?xml version="1.0" encoding="UTF-8"?>
<svg version="1.1" xmlns="http://www.w3.org/2000/svg" width="600" height="122">
<path d="M0 0 C0.89589844 0.46921875 1.79179688 0.9384375 2.71484375 1.421875 C5.24226865 2.83571269 7.61804523 4.35443539 10 6 C10.67417969 6.45375 11.34835938 6.9075 12.04296875 7.375 C21.98672341 14.99656046 29.3441498 28.75289611 31.61328125 40.93359375 C33.99492632 59.8183552 29.22371627 74.61218196 18.6484375 90.1640625 C18.10445313 90.76992187 17.56046875 91.37578125 17 92 C16.01 92 15.02 92 14 92 C14 92.66 14 93.32 14 94 C13.34 94 12.68 94 12 94 C11.75636719 94.59941406 11.51273437 95.19882813 11.26171875 95.81640625 C7.36907241 102.55321524 -3.33685345 106.02254828 -10.46875 108.078125 C-23.95710346 111.26560999 -39.79913884 110.90168116 -52 104 C-52.82242188 103.54238281 -53.64484375 103.08476563 -54.4921875 102.61328125 C-60.0184648 99.21750479 -67.66837156 94.15410176 -69.71875 87.7578125 C-69.8115625 87.17773438 -69.904375 86.59765625 -70 86 C-70.66 86 -71.32 86 -72 86 C-80.39810078 70.18221794 -85.4313926 53.35704673 -80.51513672 35.54858398 C-78.35576576 28.63810277 -75.62189887 22.61608307 -71 17 C-70.36449219 16.18144531 -69.72898437 15.36289062 -69.07421875 14.51953125 C-63.36287874 7.61789368 -56.93184056 3.09811762 -49 -1 C-48.1234375 -1.45632813 -47.246875 -1.91265625 -46.34375 -2.3828125 C-32.49905687 -8.20572755 -13.07863769 -7.23418097 0 0 Z M-50 22 C-52.26001696 24.28213062 -53.48316193 26.14134363 -55 29 C-54.24976562 28.855625 -53.49953125 28.71125 -52.7265625 28.5625 C-39.24764145 26.11796016 -27.95395046 25.95935347 -16.05859375 33.984375 C-10.28496933 38.83731713 -6.68120301 43.97301379 -4 51 C-3.63519531 51.94875 -3.27039063 52.8975 -2.89453125 53.875 C-0.61413561 61.84144764 -1.19110678 70.5969854 -4.34375 78.23046875 C-5.17385939 80.15424928 -5.17385939 80.15424928 -5 83 C2.06556572 80.73901897 5.90774047 74.81986811 9.3671875 68.50390625 C13.69130333 58.64050335 13.89886089 48.31994476 11 38 C9.68760488 34.99419182 8.02820336 32.56767433 6 30 C5.44441406 29.24847656 4.88882813 28.49695312 4.31640625 27.72265625 C-2.15949796 19.63114184 -11.17487498 14.68373706 -21.453125 13.12890625 C-31.93100016 12.59858435 -41.31485937 16.39668347 -50 22 Z M-55 53 C-55.51175781 53.60070313 -56.02351563 54.20140625 -56.55078125 54.8203125 C-59.03415143 58.55540835 -59 62.60456511 -59 67 C-58.00764775 71.69111975 -55.89975213 75.19407533 -53 79 C-52.34 79 -51.68 79 -51 79 C-51 79.66 -51 80.32 -51 81 C-47.24715915 83.5018939 -45.10193043 83.29930669 -40.625 83.3125 C-39.31789063 83.32925781 -38.01078125 83.34601563 -36.6640625 83.36328125 C-31.17296913 82.81885515 -28.18471561 80.62242981 -24.75 76.4375 C-24.24984375 75.83808594 -23.7496875 75.23867187 -23.234375 74.62109375 C-19.60741821 69.85784354 -20.40722483 63.70129826 -21 58 C-22.59706439 53.70581858 -24.82636933 50.90279282 -28.4375 48.125 C-38.30774917 43.79171988 -47.68843923 44.00115598 -55 53 Z " fill="#236FDC" transform="translate(85,9)"/>
<path d="M0 0 C2.51171027 1.71531433 4.53452887 3.4880322 6.5625 5.75 C7.119375 4.96625 7.67625 4.1825 8.25 3.375 C11.2456464 -0.02546349 13.7623759 -1.04823937 18.24609375 -1.55078125 C23.74093532 -1.57416355 27.91952461 -1.53405576 32.5625 1.75 C36.14738769 5.62555426 37.69222681 8.58878532 37.67602539 13.85424805 C37.67591209 15.0851844 37.67591209 15.0851844 37.67579651 16.34098816 C37.67063522 17.22232925 37.66547394 18.10367035 37.66015625 19.01171875 C37.6587413 19.91751175 37.65732635 20.82330475 37.65586853 21.75654602 C37.65027001 24.65023091 37.63771781 27.54383849 37.625 30.4375 C37.61998481 32.39908742 37.61542193 34.36067606 37.61132812 36.32226562 C37.60030107 41.13154021 37.58303747 45.940757 37.5625 50.75 C32.6125 50.75 27.6625 50.75 22.5625 50.75 C22.58570313 48.42582031 22.60890625 46.10164063 22.6328125 43.70703125 C22.64842702 41.44653875 22.66056149 39.18605235 22.67236328 36.92553711 C22.68239726 35.35910333 22.69602754 33.79268817 22.71337891 32.22631836 C22.73774225 29.96984247 22.74900916 27.71361506 22.7578125 25.45703125 C22.76813507 24.76100296 22.77845764 24.06497467 22.78909302 23.34785461 C22.78999704 19.39629209 22.52051543 16.22668529 20.5625 12.75 C17.67177241 11.87021334 15.31516206 11.72909272 12.3125 11.8125 C10.27871926 12.66540749 10.27871926 12.66540749 9.47900391 15.33447266 C8.46712268 19.10544185 8.24208052 22.43414481 8.1484375 26.3359375 C8.12907135 27.03772125 8.1097052 27.739505 8.0897522 28.46255493 C8.03042431 30.68324999 7.98376083 32.90399823 7.9375 35.125 C7.89927698 36.63934434 7.86022278 38.15366794 7.8203125 39.66796875 C7.72321116 43.36186543 7.64327587 47.05556666 7.5625 50.75 C2.6125 50.75 -2.3375 50.75 -7.4375 50.75 C-7.45208252 49.63963379 -7.46666504 48.52926758 -7.48168945 47.38525391 C-7.53957125 43.27375746 -7.61680364 39.16281457 -7.69995117 35.05175781 C-7.7332484 33.27092458 -7.76126531 31.48998459 -7.78393555 29.70898438 C-7.81739432 27.15188001 -7.86970301 24.59575824 -7.92578125 22.0390625 C-7.93217117 21.24005524 -7.9385611 20.44104797 -7.94514465 19.61782837 C-7.97704217 17.1370923 -7.97704217 17.1370923 -8.4375 13.75 C-12.0765209 11.32398607 -13.49558437 11.56295727 -17.6328125 12.20703125 C-19.61152898 12.61498589 -19.61152898 12.61498589 -20.875 14.5625 C-21.060625 15.284375 -21.24625 16.00625 -21.4375 16.75 C-21.60757568 17.31170898 -21.77765137 17.87341797 -21.95288086 18.45214844 C-22.60528762 21.54557535 -22.66018658 24.54343312 -22.75390625 27.703125 C-22.77468735 28.36334656 -22.79546844 29.02356812 -22.81687927 29.70379639 C-22.88200147 31.80243015 -22.94108502 33.90118372 -23 36 C-23.04322079 37.42709547 -23.0868362 38.85417905 -23.13085938 40.28125 C-23.23838351 43.77071259 -23.33773285 47.26027257 -23.4375 50.75 C-28.0575 50.75 -32.6775 50.75 -37.4375 50.75 C-37.4375 33.92 -37.4375 17.09 -37.4375 -0.25 C-32.8175 -0.25 -28.1975 -0.25 -23.4375 -0.25 C-23.4375 1.4 -23.4375 3.05 -23.4375 4.75 C-22.7775 4.75 -22.1175 4.75 -21.4375 4.75 C-21.210625 4.13125 -20.98375 3.5125 -20.75 2.875 C-16.80976103 -3.50443451 -6.08210833 -2.21167576 0 0 Z " fill="#EBEBEB" transform="translate(502.4375,41.25)"/>
<path d="M0 0 C4.95 0 9.9 0 15 0 C15 23.43 15 46.86 15 71 C10.05 71 5.1 71 0 71 C-0.33 70.01 -0.66 69.02 -1 68 C-1.37125 68.45375 -1.7425 68.9075 -2.125 69.375 C-6.27123168 72.96840079 -11.32268468 73.45088364 -16.62109375 73.31640625 C-22.04895514 72.59447395 -26.65809073 70.70788453 -30.0625 66.375 C-31 64 -31 64 -31 62 C-31.66 62 -32.32 62 -33 62 C-36.63221703 53.00733364 -36.55185189 41.42319772 -33.90234375 32.1640625 C-31.05529346 26.01443387 -28.32437155 22.50588307 -22 20 C-16.20532518 18.06844173 -10.03102279 18.19459441 -4.375 20.4375 C-2 22 -2 22 -1 23 C-0.67 15.41 -0.34 7.82 0 0 Z M-18 35 C-20.98298497 37.98298497 -20.40728846 41.25536263 -20.4375 45.25 C-20.47037109 46.00152344 -20.50324219 46.75304687 -20.53710938 47.52734375 C-20.57632242 51.61262992 -20.24885554 54.23223045 -17.66015625 57.484375 C-14.60079008 60.37752011 -13.17624496 61 -9 61 C-5.61391025 60.27440934 -4.17284408 59.16817262 -1.6875 56.75 C1.46185727 51.55677413 0.68618705 44.79141866 0 39 C-1.20736005 35.57503986 -2.98778576 33.69589729 -6 31.625 C-11.29141185 29.9714338 -13.84716461 31.93051297 -18 35 Z " fill="#E8E8E8" transform="translate(383,21)"/>
<path d="M0 0 C6.27 0 12.54 0 19 0 C27.17740982 20.91940706 27.17740982 20.91940706 29.23046875 29.27734375 C30.45148347 33.59738061 32.12045739 37.74983342 33.72998047 41.9362793 C35.76615467 47.2709031 37.51901374 52.65631834 39.140625 58.1328125 C40.03227033 61.10766557 41.01792148 64.05376444 42 67 C36.72 67 31.44 67 26 67 C21 55.25 21 55.25 21 53 C13.08 53 5.16 53 -3 53 C-5.10874606 59.9701122 -5.10874606 59.9701122 -7 67 C-12.28 67 -17.56 67 -23 67 C-22.00951282 63.66362212 -21.00741312 60.33128642 -20 57 C-19.62488281 55.74445313 -19.24976563 54.48890625 -18.86328125 53.1953125 C-16.64174582 45.85400604 -14.16553971 38.81568878 -11.109375 31.76953125 C-10.05900254 29.14729859 -9.30638438 26.61300189 -8.625 23.875 C-6.55320431 15.64839608 -3.13403567 7.86465555 0 0 Z M9 18 C5.85228529 25.24098798 3.12539606 32.39331935 1 40 C6.28 40 11.56 40 17 40 C16.33397396 36.66986981 15.71160334 33.91957527 14.58984375 30.79296875 C14.32236328 30.04208984 14.05488281 29.29121094 13.77929688 28.51757812 C13.50150391 27.74865234 13.22371094 26.97972656 12.9375 26.1875 C12.65583984 25.39923828 12.37417969 24.61097656 12.08398438 23.79882812 C11.39241462 21.86477711 10.69662722 19.93223512 10 18 C9.67 18 9.34 18 9 18 Z " fill="#EEEEEE" transform="translate(167,25)"/>
<path d="M0 0 C4.95 0 9.9 0 15 0 C15.64362793 1.93088379 16.28722246 3.86177872 16.93066406 5.79272461 C17.47890684 7.43696287 18.02773933 9.08100461 18.57714844 10.72485352 C19.80461555 14.39966452 21.02459203 18.07590425 22.21875 21.76171875 C22.72921875 23.33373047 22.72921875 23.33373047 23.25 24.9375 C23.69085937 26.31228516 23.69085937 26.31228516 24.140625 27.71484375 C24.98581759 30.22390387 24.98581759 30.22390387 27 33 C27.31453125 31.87722656 27.6290625 30.75445312 27.953125 29.59765625 C32.10314128 15.008239 32.10314128 15.008239 35.10546875 9.0546875 C36.37032399 6.14938683 37.12949242 3.04677654 38 0 C42.95 0 47.9 0 53 0 C52.23175921 4.60944473 51.56735915 7.40519079 49.75 11.5 C47.30122414 17.17606427 45.21367292 22.92652536 43.2109375 28.7734375 C42.00703638 31.98125144 40.53083049 34.93833903 39 38 C38.49748862 39.52783764 38.0364192 41.07015602 37.625 42.625 C35.29672241 50.7372093 31.93743428 58.5395982 28 66 C27.34 66 26.68 66 26 66 C26 66.66 26 67.32 26 68 C18.74772708 73.37205402 11.86998473 74.04937553 3 73 C1.68 72.34 0.36 71.68 -1 71 C0.485 65.06 0.485 65.06 2 59 C6.4921875 59.1953125 6.4921875 59.1953125 10.984375 59.390625 C14.0558982 59.21174386 14.0558982 59.21174386 16.453125 57.421875 C18.29942919 55.02179409 18.29942919 55.02179409 17.94921875 51.74609375 C16.90809254 47.63728702 15.50821306 43.93563709 13.8125 40.0625 C13.17506062 38.5607528 12.53969125 37.05812549 11.90625 35.5546875 C11.5865625 34.79768555 11.266875 34.04068359 10.9375 33.26074219 C0 6.88541667 0 6.88541667 0 0 Z " fill="#E7E7E7" transform="translate(546,41)"/>
<path d="M0 0 C4.83410651 4.08790215 7.35073069 8.65631954 8 15 C8.18450267 19.0091932 8.27562045 22.99388886 8 27 C7 28 7 28 3.94897461 28.11352539 C2.60008729 28.11336634 1.25119386 28.10767612 -0.09765625 28.09765625 C-1.16094398 28.09553383 -1.16094398 28.09553383 -2.24571228 28.09336853 C-4.51801712 28.08775443 -6.79022475 28.07519963 -9.0625 28.0625 C-10.59960796 28.05748681 -12.13671745 28.05292359 -13.67382812 28.04882812 C-17.44925642 28.03778042 -21.22461171 28.02050641 -25 28 C-23.12297673 32.89562693 -23.12297673 32.89562693 -20 37 C-15.04391321 38.14371234 -11.60586536 38.2517564 -7 36 C-4.63637584 33.50626957 -4.63637584 33.50626957 -3 31 C0.99500618 32.3697164 3.80009492 34.25722422 7 37 C6.64929775 40.97462547 5.31385746 43.66849516 2.6328125 46.640625 C-2.62634616 51.01906331 -9.57550705 51.51847736 -16.16796875 51.26953125 C-23.45484028 50.5760221 -29.17064501 49.43486923 -34.5 44.125 C-39.82574343 37.39947185 -41.43759769 29.21217936 -40.9375 20.75 C-40.00364902 14.44907143 -37.46380166 7.66670174 -33 3 C-32.34 3 -31.68 3 -31 3 C-31 2.34 -31 1.68 -31 1 C-21.83153062 -3.792609 -9.26480661 -5.95142475 0 0 Z M-21 10 C-23.62341814 12.71388084 -24.05391428 14.21565712 -25 18 C-18.73 18 -12.46 18 -6 18 C-6.48476316 12.47260426 -6.48476316 12.47260426 -8.25 10.1875 C-12.64536868 7.20492839 -16.32958505 7.86785405 -21 10 Z " fill="#E6E6E6" transform="translate(448,43)"/>
<path d="M0 0 C4.88266346 5.01115461 5.12749553 8.93101921 5.09765625 15.734375 C5.09443359 17.02988281 5.09121094 18.32539062 5.08789062 19.66015625 C5.07953598 21.02343817 5.07107104 22.38671942 5.0625 23.75 C5.05748168 25.12890465 5.05291935 26.50781104 5.04882812 27.88671875 C5.03704093 31.25785659 5.02058635 34.62890628 5 38 C5.969375 37.979375 6.93875 37.95875 7.9375 37.9375 C11 38 11 38 12 39 C12.07205511 40.68608966 12.08386068 42.37500659 12.0625 44.0625 C12.05347656 44.98160156 12.04445313 45.90070313 12.03515625 46.84765625 C12.02355469 47.55792969 12.01195312 48.26820312 12 49 C6.24707776 50.60159305 0.32374302 50.97503286 -5 48 C-5.66 47.01 -6.32 46.02 -7 45 C-7.804375 45.928125 -7.804375 45.928125 -8.625 46.875 C-12.83961503 50.64597134 -17.31553688 51.42160232 -22.9140625 51.25 C-28.00894442 50.63937745 -31.84076741 49.1889565 -35.4375 45.5 C-38.53879922 40.53792124 -38.51919908 35.69297236 -38 30 C-36.24043759 26.06193175 -33.93922124 22.79748249 -29.87109375 21.12451172 C-29.06800781 20.89521973 -28.26492188 20.66592773 -27.4375 20.4296875 C-26.55835938 20.17316406 -25.67921875 19.91664062 -24.7734375 19.65234375 C-23.85820312 19.39582031 -22.94296875 19.13929687 -22 18.875 C-20.18747067 18.35166407 -18.37496946 17.82823073 -16.5625 17.3046875 C-15.75941406 17.07765137 -14.95632813 16.85061523 -14.12890625 16.61669922 C-12.40713296 16.11793783 -10.70057037 15.56685679 -9 15 C-9.66 13.35 -10.32 11.7 -11 10 C-17.47103932 9.3259334 -20.90685339 10.24087041 -26.21875 13.9296875 C-28 15 -28 15 -30.75 15.1875 C-34.02073381 13.46127938 -35.26663373 11.20993753 -37 8 C-37 7.01 -37 6.02 -37 5 C-26.79065813 -2.77854619 -11.72705353 -7.39314245 0 0 Z M-14.9375 26.875 C-16.01902344 27.22304687 -17.10054688 27.57109375 -18.21484375 27.9296875 C-21.0883947 28.81746395 -21.0883947 28.81746395 -23 31 C-23.34490322 35.05261287 -23.30163882 36.54754176 -21 40 C-16.78384572 40.63640065 -14.72199658 40.47086733 -11.125 38.125 C-8.22670464 33.86280095 -8.10806914 30.05960084 -8 25 C-10.31341816 25 -12.77624085 26.17085612 -14.9375 26.875 Z " fill="#E9E9E9" transform="translate(332,43)"/>
<path d="M0 0 C2.98575905 2.41198329 5.73933491 4.88791559 8 8 C8 9.32 8 10.64 8 12 C6.390625 13.484375 6.390625 13.484375 4.25 14.75 C3.20585937 15.39195313 3.20585937 15.39195313 2.140625 16.046875 C0 17 0 17 -4 17 C-4 16.34 -4 15.68 -4 15 C-5.32 14.34 -6.64 13.68 -8 13 C-8 12.34 -8 11.68 -8 11 C-14.12596734 10.65862289 -14.12596734 10.65862289 -20 12 C-20.33 12.99 -20.66 13.98 -21 15 C-21.66 15 -22.32 15 -23 15 C-24.74500832 26.45344793 -24.74500832 26.45344793 -21 37 C-17.07112808 39.40146778 -13.56885028 39.08257504 -9.125 38.4375 C-5.81340963 37.32344313 -5.81340963 37.32344313 -4.8125 34.4375 C-4.544375 33.633125 -4.27625 32.82875 -4 32 C-1.60542462 30.98047555 -0.38626161 30.87674027 2.10546875 31.671875 C2.79253906 32.02765625 3.47960937 32.3834375 4.1875 32.75 C4.88230469 33.09546875 5.57710938 33.4409375 6.29296875 33.796875 C8 35 8 35 9 38 C7.0575605 43.46311109 3.72729098 46.83536862 -1 50 C-9.05461243 53.34342403 -17.6158091 52.75228403 -25.74609375 49.953125 C-31.76430485 47.40816225 -34.1210706 44.33117663 -36.875 38.5625 C-40.34684504 29.37563732 -40.34684504 20.62436268 -36.875 11.4375 C-33.8048838 4.97047653 -30.83845623 2.44412685 -24.4375 -0.8125 C-17.07835453 -3.3032877 -7.01930909 -3.30320428 0 0 Z " fill="#E6E6E6" transform="translate(282,42)"/>
<path d="M0 0 C4.62 0 9.24 0 14 0 C14 22.11 14 44.22 14 67 C9.38 67 4.76 67 0 67 C0 44.89 0 22.78 0 0 Z " fill="#F3F3F3" transform="translate(217,25)"/>
<path d="M0 0 C7.11851743 8.304937 8.17112483 17.81922887 8.25 28.4375 C8.25918457 29.13593018 8.26836914 29.83436035 8.27783203 30.55395508 C8.25531514 34.25167935 8.10395403 35.84406896 6 39 C6 33.39 6 27.78 6 22 C5.34 21.67 4.68 21.34 4 21 C4.33 20.01 4.66 19.02 5 18 C4.01 17.67 3.02 17.34 2 17 C2 14.69 2 12.38 2 10 C1.34 10 0.68 10 0 10 C0 6.7 0 3.4 0 0 Z " fill="#2462B6" transform="translate(109,33)"/>
<path d="M0 0 C1.28849616 3.91702832 0.27505805 5.87040242 -1.23046875 9.64453125 C-4.77753433 20.50179291 -3.10325309 33.69616947 -3 45 C-3.33 45 -3.66 45 -4 45 C-8.16989739 29.84689072 -7.05078388 14.10156776 0 0 Z " fill="#1E58A9" transform="translate(9,33)"/>
<path d="M0 0 C1.08087891 -0.01224609 2.16175781 -0.02449219 3.27539062 -0.03710938 C8.62498937 -0.04696131 13.20041328 -0.01447721 18.1875 2.1875 C18.1875 2.5175 18.1875 2.8475 18.1875 3.1875 C17.2130896 3.17964478 17.2130896 3.17964478 16.21899414 3.17163086 C13.22933957 3.15063497 10.23970059 3.1377687 7.25 3.125 C6.22841797 3.11662109 5.20683594 3.10824219 4.15429688 3.09960938 C-0.56652591 3.08452687 -5.184301 3.15613245 -9.875 3.71875 C-13.29943402 4.12642072 -15.54379682 4.13647834 -18.8125 3.1875 C-12.43762977 -0.10984667 -7.06607385 0.00416878 0 0 Z " fill="#2456A0" transform="translate(59.8125,3.8125)"/>
<path d="M0 0 C4.00973371 4.00973371 4.3123331 9.17297969 4.375 14.625 C4.30013513 21.66229747 2.65624053 27.52541371 0 34 C1.98 33.505 1.98 33.505 4 33 C3.67 33.99 3.34 34.98 3 36 C0.03 36.495 0.03 36.495 -3 37 C-2.51454701 33.89310087 -1.79151065 31.55800258 -0.4375 28.6875 C2.87897984 20.19407603 1.4674567 8.80474018 0 0 Z " fill="#224D8D" transform="translate(80,58)"/>
<path d="M0 0 C0.92296875 0.06058594 1.8459375 0.12117188 2.796875 0.18359375 C13.85990326 0.89416375 24.92710958 1.46677679 36 2 C31.39979025 5.0668065 26.78651092 4.32866341 21.375 4.3125 C20.31925781 4.32861328 19.26351562 4.34472656 18.17578125 4.36132812 C11.56437758 4.36542441 6.10798867 3.56978893 0 1 C0 0.67 0 0.34 0 0 Z " fill="#1C4181" transform="translate(37,114)"/>
<path d="M0 0 C2.40625 2.171875 2.40625 2.171875 4 4 C2.02 3.67 0.04 3.34 -2 3 C-2 2.34 -2 1.68 -2 1 C-2.721875 0.87625 -3.44375 0.7525 -4.1875 0.625 C-7 0 -7 0 -9.03125 -1.03125 C-13.44362649 -2.47107812 -17.70520367 -2.20965704 -22.3125 -2.125 C-23.24384766 -2.11597656 -24.17519531 -2.10695312 -25.13476562 -2.09765625 C-27.4234436 -2.07418263 -29.71158672 -2.04134729 -32 -2 C-31.67 -2.66 -31.34 -3.32 -31 -4 C-20.25018207 -6.90944106 -9.86174202 -4.82920356 0 0 Z " fill="#26589B" transform="translate(66,40)"/>
<path d="M0 0 C2.64 0 5.28 0 8 0 C7.01 0.495 7.01 0.495 6 1 C5.31867549 2.66072849 4.65257873 4.327767 4 6 C3.34 6.66 2.68 7.32 2 8 C1.57416439 10.29782765 1.57416439 10.29782765 1.4375 12.875 C1.20635892 16.0355005 0.85941306 18.94588748 0 22 C-1.14077657 18.57767028 -1.09815117 15.91326783 -1.0625 12.3125 C-1.05347656 11.13300781 -1.04445313 9.95351562 -1.03515625 8.73828125 C-1.02355469 7.83464844 -1.01195313 6.93101563 -1 6 C-1.66 6 -2.32 6 -3 6 C-2 4 -1 2 0 0 Z " fill="#296ACB" transform="translate(26,58)"/>
<path d="M0 0 C0.33 0 0.66 0 1 0 C1.66 5.61 2.32 11.22 3 17 C1.35 17.66 -0.3 18.32 -2 19 C-2 19.66 -2 20.32 -2 21 C-3.32 20.67 -4.64 20.34 -6 20 C-5.360625 19.21625 -4.72125 18.4325 -4.0625 17.625 C-0.98067659 13.7026793 -0.7775541 11.33007402 -0.4375 6.375 C-0.31181641 4.59222656 -0.31181641 4.59222656 -0.18359375 2.7734375 C-0.12300781 1.85820313 -0.06242187 0.94296875 0 0 Z " fill="#1A4995" transform="translate(64,67)"/>
<path d="M0 0 C0 0.66 0 1.32 0 2 C-0.969375 2.2475 -1.93875 2.495 -2.9375 2.75 C-3.948125 3.1625 -4.95875 3.575 -6 4 C-6.73323796 6.01508358 -6.73323796 6.01508358 -7 8 C-10.28976808 9.09658936 -11.71303767 8.79953138 -15 8 C-12.73762373 5.52733876 -10.42546667 3.936134 -7.5 2.3125 C-6.33984375 1.65701172 -6.33984375 1.65701172 -5.15625 0.98828125 C-3 0 -3 0 0 0 Z " fill="#2761B1" transform="translate(41,7)"/>
<path d="M0 0 C1.15957207 3.47871621 0.77456651 4.34219645 -0.4375 7.6875 C-0.72496094 8.49574219 -1.01242188 9.30398437 -1.30859375 10.13671875 C-1.53675781 10.75160156 -1.76492187 11.36648437 -2 12 C-0.68 11.67 0.64 11.34 2 11 C1.67 11.99 1.34 12.98 1 14 C-0.98 14.33 -2.96 14.66 -5 15 C-4.18022022 9.75340941 -2.371614 4.74322799 0 0 Z " fill="#275AA5" transform="translate(82,80)"/>
<path d="M0 0 C-4.51693852 3.88958595 -4.51693852 3.88958595 -7.1875 4.5 C-9.2250619 4.83890051 -9.2250619 4.83890051 -10.25 7.0625 C-10.4975 7.701875 -10.745 8.34125 -11 9 C-11.33 9 -11.66 9 -12 9 C-12.36407767 4.50970874 -12.36407767 4.50970874 -10.75 2.25 C-7.351958 -0.17717286 -4.07763628 -0.11326767 0 0 Z " fill="#1E4F9A" transform="translate(44,26)"/>
<path d="M0 0 C0.33 0.66 0.66 1.32 1 2 C-0.3984375 4.6015625 -0.3984375 4.6015625 -2.375 7.625 C-3.34566406 9.12933594 -3.34566406 9.12933594 -4.3359375 10.6640625 C-4.88507813 11.43492188 -5.43421875 12.20578125 -6 13 C-6.33 13 -6.66 13 -7 13 C-7 10.69 -7 8.38 -7 6 C-6.01 6.33 -5.02 6.66 -4 7 C-4 5.35 -4 3.7 -4 2 C-2.68 1.34 -1.36 0.68 0 0 Z " fill="#235AAA" transform="translate(109,87)"/>
<path d="M0 0 C2.72168665 3.17530109 4.85559053 5.94254825 6 10 C5.625 12.3125 5.625 12.3125 5 14 C4.54625 13.34 4.0925 12.68 3.625 12 C3.08875 11.34 2.5525 10.68 2 10 C1.34 10 0.68 10 0 10 C0 6.7 0 3.4 0 0 Z " fill="#1E5295" transform="translate(109,33)"/>
<path d="M0 0 C0.33 0.99 0.66 1.98 1 3 C1.66 3 2.32 3 3 3 C2.11223998 6.69900008 1.05418136 10.34550461 0 14 C-1.74627478 11.38058783 -2.38722388 9.96175123 -3 7 C-2.34 7 -1.68 7 -1 7 C-1.020625 6.030625 -1.04125 5.06125 -1.0625 4.0625 C-1 1 -1 1 0 0 Z " fill="#2166CA" transform="translate(9,72)"/>
<path d="M0 0 C1.32 0.66 2.64 1.32 4 2 C4 2.66 4 3.32 4 4 C4.66 4 5.32 4 6 4 C6 4.66 6 5.32 6 6 C6.763125 6.28875 7.52625 6.5775 8.3125 6.875 C11 8 11 8 14 10 C9.64477147 9.49357808 6.55760365 8.61588503 3 6 C3 5.34 3 4.68 3 4 C1.68 3.34 0.36 2.68 -1 2 C-0.67 1.34 -0.34 0.68 0 0 Z " fill="#2A61B5" transform="translate(28,84)"/>
<path d="M0 0 C3.3736886 0.60244439 5.59828424 1.51546646 8 4 C8.75 7.6875 8.75 7.6875 9 11 C5.36440339 7.56638098 2.63886654 4.2026393 0 0 Z " fill="#205299" transform="translate(85,32)"/>
<path d="M0 0 C0.33 1.32 0.66 2.64 1 4 C0.34 4 -0.32 4 -1 4 C-1 5.32 -1 6.64 -1 8 C-2.4375 9.625 -2.4375 9.625 -4 11 C-4.33 11.66 -4.66 12.32 -5 13 C-6.32 12.67 -7.64 12.34 -9 12 C-8.43410156 11.30132812 -7.86820312 10.60265625 -7.28515625 9.8828125 C-6.55167969 8.97273438 -5.81820312 8.06265625 -5.0625 7.125 C-4.33160156 6.22007813 -3.60070312 5.31515625 -2.84765625 4.3828125 C-0.9963748 2.15497253 -0.9963748 2.15497253 0 0 Z " fill="#2158A0" transform="translate(93,78)"/>
<path d="M0 0 C1.06434103 3.19302308 0.96752058 4.80814107 -0.375 7.875 C-1.75461904 11.23900259 -2.54661258 14.37290063 -3 18 C-3.66 18 -4.32 18 -5 18 C-4.51030705 11.38914524 -2.66557258 6.05022986 0 0 Z " fill="#245596" transform="translate(9,33)"/>
<path d="M0 0 C0.58203125 1.859375 0.58203125 1.859375 1 4 C-0.3125 6.25 -0.3125 6.25 -2 8 C-2.66 8 -3.32 8 -4 8 C-4.66 9.32 -5.32 10.64 -6 12 C-6.66 12 -7.32 12 -8 12 C-6.49087042 7.01987239 -3.44338151 3.75740058 0 0 Z " fill="#22509A" transform="translate(18,21)"/>
<path d="M0 0 C2 2 2 2 2.08203125 4.27734375 C1.99308594 5.15519531 1.90414062 6.03304687 1.8125 6.9375 C1.73644531 7.81277344 1.66039063 8.68804687 1.58203125 9.58984375 C0.93104272 12.28554791 0.11762004 13.27051517 -2 15 C-3 13 -3 13 -2.125 10.3125 C-1.75375 9.219375 -1.3825 8.12625 -1 7 C-0.62468554 4.67305036 -0.28082798 2.34023315 0 0 Z " fill="#24569B" transform="translate(97,63)"/>
<path d="M0 0 C1.32 0 2.64 0 4 0 C4 0.99 4 1.98 4 3 C4.61875 3.061875 5.2375 3.12375 5.875 3.1875 C8 4 8 4 9.25 6.5625 C9.4975 7.366875 9.745 8.17125 10 9 C6.78956118 7.61811547 4.95063635 6.07578097 2.75 3.375 C2.22921875 2.74335937 1.7084375 2.11171875 1.171875 1.4609375 C0.78515625 0.97882813 0.3984375 0.49671875 0 0 Z " fill="#1E4993" transform="translate(18,100)"/>
<path d="M0 0 C3.96 0 7.92 0 12 0 C12 0.99 12 1.98 12 3 C8.04 2.67 4.08 2.34 0 2 C0 1.34 0 0.68 0 0 Z " fill="#2768B1" transform="translate(59,21)"/>
<path d="M0 0 C1.25 2.5625 1.25 2.5625 2 5 C-1.45925163 3.7508258 -4.14693203 2.32472205 -7 0 C-3.87822605 -1.04059132 -2.92916561 -1.32284898 0 0 Z " fill="#1E54A5" transform="translate(35,109)"/>
<path d="M0 0 C0.66 0.33 1.32 0.66 2 1 C1.55123384 2.64846769 1.09069512 4.29373455 0.625 5.9375 C0.36976562 6.85402344 0.11453125 7.77054687 -0.1484375 8.71484375 C-1 11 -1 11 -3 12 C-2.25749403 7.91621717 -1.17076699 3.98060777 0 0 Z " fill="#204C91" transform="translate(113,75)"/>
<path d="M0 0 C2.64 1.98 5.28 3.96 8 6 C7.67 6.66 7.34 7.32 7 8 C5.35 7.67 3.7 7.34 2 7 C1.34 4.69 0.68 2.38 0 0 Z " fill="#1F4F99" transform="translate(95,16)"/>
<path d="M0 0 C3.3 1.65 6.6 3.3 10 5 C10 5.99 10 6.98 10 8 C7.525 7.01 7.525 7.01 5 6 C5 5.34 5 4.68 5 4 C2.525 3.01 2.525 3.01 0 2 C0 1.34 0 0.68 0 0 Z " fill="#20488E" transform="translate(84,9)"/>
<path d="M0 0 C3.53586014 3.17320782 5.58578031 5.16743695 6 10 C5.34 10 4.68 10 4 10 C4 8.68 4 7.36 4 6 C2.68 5.34 1.36 4.68 0 4 C0 2.68 0 1.36 0 0 Z " fill="#1F4C8F" transform="translate(74,48)"/>
<path d="M0 0 C1.37562854 1.28965176 2.70766393 2.62689293 4 4 C4 4.66 4 5.32 4 6 C0 6 0 6 -2 5 C-1.125 1.125 -1.125 1.125 0 0 Z " fill="#245AAC" transform="translate(103,24)"/>
<path d="M0 0 C2.475 0.99 2.475 0.99 5 2 C5 2.66 5 3.32 5 4 C5.66 4.33 6.32 4.66 7 5 C5.35 5 3.7 5 2 5 C1.67 4.01 1.34 3.02 1 2 C0.34 1.67 -0.32 1.34 -1 1 C-0.67 0.67 -0.34 0.34 0 0 Z " fill="#2663B6" transform="translate(79,7)"/>
<path d="M0 0 C1.65 0 3.3 0 5 0 C4.01 0.495 4.01 0.495 3 1 C2.67 1.825 2.34 2.65 2 3.5 C1 6 1 6 -1 7 C-0.67 4.69 -0.34 2.38 0 0 Z " fill="#1E4F8D" transform="translate(29,58)"/>
<path d="M0 0 C2.86724686 0.57344937 3.8614515 0.8614515 6 3 C4.02 3.33 2.04 3.66 0 4 C0 2.68 0 1.36 0 0 Z " fill="#2363B2" transform="translate(27,36)"/>
</svg>
